<svg display="none" xmlns="http://www.w3.org/2000/svg">
    <symbol viewBox="0 0 24 25" id="phone">
        <path d="M14.05 4.85596C15.0267 5.04652 15.9244 5.52421 16.6281 6.22789C17.3317 6.93157 17.8094 7.82922 18 8.80596M14.05 0.855957C16.0793 1.08139 17.9716 1.99013 19.4162 3.43296C20.8609 4.8758 21.772 6.76697 22 8.79596M21 16.776V19.776C21.0011 20.0545 20.9441 20.3301 20.8325 20.5853C20.7209 20.8405 20.5573 21.0695 20.3521 21.2578C20.1469 21.4461 19.9046 21.5894 19.6407 21.6787C19.3769 21.7679 19.0974 21.801 18.82 21.776C15.7428 21.4416 12.787 20.3901 10.19 18.706C7.77383 17.1706 5.72534 15.1221 4.19 12.706C2.49998 10.0972 1.44824 7.12695 1.12 4.03596C1.09501 3.75942 1.12787 3.48072 1.2165 3.21758C1.30513 2.95445 1.44757 2.71265 1.63477 2.50758C1.82196 2.30251 2.0498 2.13867 2.30379 2.02648C2.55778 1.91429 2.83234 1.85622 3.11 1.85596H6.11C6.59531 1.85118 7.06579 2.02304 7.43376 2.33949C7.80173 2.65594 8.04208 3.0954 8.11 3.57596C8.23662 4.53602 8.47145 5.47868 8.81 6.38596C8.94454 6.74388 8.97366 7.13287 8.89391 7.50684C8.81415 7.8808 8.62886 8.22407 8.36 8.49596L7.09 9.76596C8.51356 12.2695 10.5865 14.3424 13.09 15.766L14.36 14.496C14.6319 14.2271 14.9752 14.0418 15.3491 13.9621C15.7231 13.8823 16.1121 13.9114 16.47 14.046C17.3773 14.3845 18.3199 14.6193 19.28 14.746C19.7658 14.8145 20.2094 15.0592 20.5265 15.4335C20.8437 15.8077 21.0122 16.2855 21 16.776Z" stroke="white" stroke-linecap="round" stroke-linejoin="round"/>
    </symbol>

    <symbol viewBox="0 0 22 18" id="mail">
        <path d="M21 2.85596C21 1.75596 20.1 0.855957 19 0.855957H3C1.9 0.855957 1 1.75596 1 2.85596M21 2.85596V14.856C21 15.956 20.1 16.856 19 16.856H3C1.9 16.856 1 15.956 1 14.856V2.85596M21 2.85596L11 9.85596L1 2.85596" stroke="white" stroke-linecap="round" stroke-linejoin="round"/>
    </symbol>

    <symbol viewBox="0 0 20 24" id="marker">
        <path d="M19 9.85596C19 16.856 10 22.856 10 22.856C10 22.856 1 16.856 1 9.85596C1 7.46901 1.94821 5.17982 3.63604 3.492C5.32387 1.80417 7.61305 0.855957 10 0.855957C12.3869 0.855957 14.6761 1.80417 16.364 3.492C18.0518 5.17982 19 7.46901 19 9.85596Z" stroke="white" stroke-linecap="round" stroke-linejoin="round"/>
        <path d="M10 12.856C11.6569 12.856 13 11.5128 13 9.85596C13 8.1991 11.6569 6.85596 10 6.85596C8.34315 6.85596 7 8.1991 7 9.85596C7 11.5128 8.34315 12.856 10 12.856Z" stroke="white" stroke-linecap="round" stroke-linejoin="round"/>
    </symbol>
</svg>